<svg version="1" xmlns="http://www.w3.org/2000/svg" width="682.667" height="682.667" viewBox="0 0 512.000000 512.000000"><path d="M186.2 26.1c-14.8 2.9-34 22.9-45.1 47.2-8.1 17.5-11.9 33.4-12.7 53.2-1 22.5 2.8 48.1 10.6 71.6 3.8 11.3 4 12.5 4 24.3v12.4l2.8.5c1.5.3 2.8.4 3 .3.1-.2.9-19.8 1.8-43.7 1.7-47.1 2.6-54.4 8-63.7 5.4-9.2 13.9-16.3 23.4-19.7 8.1-2.9 23.6-3.7 48.4-2.5 12.7.6 24 1.1 25.1 1.1 1.1 0 15.1-.3 31.2-.7 32-.8 37.6-.2 47.3 4.4 7.2 3.5 16 12.5 19.4 19.7 4.4 9.2 5.3 16.8 6.5 52 .6 18.1 1.4 37.6 1.7 43.2l.6 10.2 4.9-.6c5.6-.7 8.9 1 11.9 6l2 3.2v-12c0-7.6.9-18.5 2.5-29 5.6-38.9 7.6-80.2 4.6-95.5-2.7-14.3-13.7-32-31-50.2-14.8-15.6-28.7-24.8-45.1-30-6.6-2-9.4-2.3-23-2.2-13.3.1-16.9.5-25.2 2.7-5.4 1.4-13.3 4.4-17.6 6.6-9.7 5.1-14.4 5.4-20.5 1.2-13.3-9-26.9-12.5-39.5-10z"/><path d="M168.9 220.5c-3.1 1.7-5.4 5-6.3 9.1-.6 2.5 1.9 28.6 4 41.9l.6 3.9 2.2-6c3.1-8.4 6.8-14.4 11.4-18.6 5.1-4.6 10-6.2 17.3-5.5 12.3 1.1 20.4 7.2 34.6 26.2 4.2 5.5 7.6 10.1 7.7 10.2.4.5-6.3-43.8-6.9-45.8-1.4-4.3-8.5-10.8-14.2-12.9-9.7-3.6-45.1-5.4-50.4-2.5zM312 219.7c-15.6.9-23.3 3.5-29.2 10.1-4.6 5.1-5.1 7-8.3 29.2-1.4 10.2-2.8 19.8-3.2 21.5-.5 2.6 0 2.1 3.3-2.7 7-10.3 18.7-23.8 23.3-26.9 5.5-3.6 12.9-5.9 19-5.9 11.3.1 20.5 9.1 26.1 25.5l1.7 5 .6-4c.4-2.2 1.6-12.1 2.8-21.9 2-17 2-18.1.4-22.3-2.7-7.1-5.7-8.3-19.5-8.1-6.3.1-14 .3-17 .5zM381.8 248.1c1.1 5.2.7 27.6-.6 35.2-1.2 6.3-1.1 7 .8 9.7 1.1 1.6 3.4 5.7 5 9.2 9.6 20.6 7.4 40.7-4.2 38.4-2.6-.5-2.9-.4-1.8.9 2.2 2.6 10.3 7.5 12.5 7.5 1.2 0 3.2-1.2 4.6-2.6 2.2-2.3 2.4-3.4 2.4-11.7 0-10.8-2.3-18.4-8.5-29.2l-4.1-6.8 1.3-5.6c.6-3.1 1.2-12.4 1.2-20.6.1-14.1-.1-15.3-2.4-19.9-1.4-2.7-3.5-5.6-4.7-6.4-2.3-1.4-2.3-1.4-1.5 1.9zM198.1 292.6c-1.7 1.4-3.6 4.2-4.2 6.3-3 10.1 8.6 18.7 17.8 13.1 3.5-2.1 6.4-6.2 4.1-5.9-3.5.4-6.8-.3-8.9-2-2.4-1.9-2.4-1.9-.5-4 1.1-1.2 3.7-2.4 5.8-2.7 2.1-.4 3.8-1 3.8-1.4 0-.5-1.4-2-3.1-3.4-4.2-3.6-10.6-3.6-14.8 0zM309 295.7c-3.5 1.3-8.6 7.6-5.8 7.2 3.6-.4 6.8.3 8.9 2l2.4 2-2 2.1c-1.2 1.1-4.1 2.4-6.4 2.8l-4.4.7 3.7 3.3c7 6.1 17 3.3 19.7-5.7 2.7-8.9-7.1-17.7-16.1-14.4zM365.5 328.8c.2 1.5.9 19.1 1.6 39.2 1.2 39.1.7 50.5-3.1 66.6-7.1 30.3-20.5 44.5-47.5 50.5-9.2 2-13.5 2.2-52 2.6-55.1.6-72.6-1-87-8.2l-5-2.5 4 3.5c5.4 4.9 16.1 10.1 24.7 11.9 13.5 2.9 25.2 3.6 64.8 3.6 51.3 0 62.4-1.4 78.3-9.7 16.8-8.8 27.4-29.8 30.8-61 .9-8.4.9-19.7-.1-50.3l-1.3-39.5-4.3-4.7c-4-4.3-4.3-4.4-3.9-2zM140 332.5c-2.5 2.6-6.2 5.5-8.2 6.6-4.1 2.1-4.2 3.5-.5 7.6 2.5 2.8 5.2 2.9 9.5.3 4.1-2.5 4.4-3.2 4-11.9l-.3-7.2-4.5 4.6z"/><path d="M251.2 387c-9.6 5.9-10.2 27.8-1.1 35.5 4.1 3.4 8 3.2 12.4-.6 8.5-7.5 8.5-26.3 0-33.8-4.2-3.6-6.7-3.9-11.3-1.1z"/></svg>