<?xml version="1.0" encoding="utf-8"?>
<!-- Generator: Adobe Illustrator 19.2.1, SVG Export Plug-In . SVG Version: 6.00 Build 0)  -->
<svg version="1.1" id="Layer_1" xmlns="http://www.w3.org/2000/svg" xmlns:xlink="http://www.w3.org/1999/xlink" x="0px" y="0px"
	 viewBox="0 0 700 700" style="enable-background:new 0 0 700 700;" xml:space="preserve">
<style type="text/css">
	.st0{opacity:0.1;}
	.st1{fill:#EAEAF0;}
	.st2{fill:#DAD6E4;}
	.st3{fill:#FFFFFF;}
	.st4{opacity:0.5;}
	.st5{fill:none;stroke:#FFFFFF;stroke-width:2;stroke-miterlimit:10;stroke-dasharray:12.094,12.094;}
	.st6{fill:#2E1800;}
	.st7{fill:#EBCABC;}
	.st8{fill:none;stroke:#D9AC95;stroke-width:3;stroke-miterlimit:10;}
	.st9{fill:#D9AC95;}
	.st10{fill:none;stroke:#C69985;stroke-width:3;stroke-miterlimit:10;}
	.st11{fill:#642420;}
	.st12{fill:#231F20;}
	.st13{fill:#C69985;}
</style>
<circle class="st0" cx="354.7" cy="358" r="323.4"/>
<circle class="st1" cx="349.3" cy="353.4" r="323.4"/>
<circle class="st2" cx="349.3" cy="353.4" r="300.3"/>
<circle class="st3" cx="349.3" cy="353.4" r="225.2"/>
<g class="st4">
	<circle class="st5" cx="349.3" cy="353.4" r="242.5"/>
</g>
<g>
	<path class="st6" d="M260.5,330.8l0.3-19.8c0,0-15.1-35.3-11.6-72.1s26.7-69.8,45.7-73.2s33.3,10,33.3,10h8.6
		c0,0,15.5-12,44.8-10.6c29.3,1.4,54.6,27.8,63.7,50.8s-3.7,96.2-3.7,96.2v23.5H260.8L260.5,330.8z"/>
	<path id="pele_3_" class="st7" d="M349.8,230.2c0,0-44.5-3.8-56.1,0c0,0-24,4.8-25.9,34.5L261,450.8c0,0-4.6,55.4,23.8,71.1
		c0.8,0.5,1.7,0.9,2.5,1.4c3.4,2.1,18.2,9.1,62.5,6.6V230.2z"/>
	<path id="sobrancelha_3_" class="st6" d="M338,370.3l-5.2-36.1c0,0-1.8-12.4-18.7-14.9c0,0-26.4-2-27.5-1.6c0,0-13.5-0.2-10.8,15.8
		l3.6,30.6c0,0,4.5-21,17.3-24.8c0,0,15.1-4,26.4,10.3C323.1,349.4,337.3,366.1,338,370.3z"/>
	<path id="orelha_3_" class="st7" d="M265.3,332.2c0,0-15.1-8.7-16.5,17.6c0,0,0.4,18,2.9,24.1c0,0-11.5,14.7-10.8,31.6
		c0,0,2.1,21.6,21.9-3.9"/>
	<path class="st8" d="M348.8,495.4c-12.8-0.8-22.9-18-22.9-39.1c0-21.6,10.7-39.1,23.9-39.1"/>
	<path class="st8" d="M349.8,495.4c-0.3,0-0.6,0-1,0"/>
	<path id="pele_2_" class="st9" d="M348.8,230.3c0,0,44.5-3.8,56.1,0c0,0,24,4.8,25.9,34.5l6.7,186.1c0,0,4.6,55.4-23.8,71.1
		c-0.8,0.5-1.7,0.9-2.5,1.4c-3.4,2.1-18.2,9.1-62.5,6.6V230.3z"/>
	<path id="sobrancelha_2_" class="st6" d="M361.3,370.3l5.2-36.1c0,0,1.8-12.4,18.7-14.9c0,0,26.4-2,27.5-1.6
		c0,0,13.5-0.2,10.8,15.8l-3.6,30.6c0,0-4.5-21-17.3-24.8c0,0-15.1-4-26.4,10.3C376.2,349.4,362,366.1,361.3,370.3z"/>
	<path id="orelha_2_" class="st9" d="M433.3,332.2c0,0,15.1-8.7,16.5,17.6c0,0-0.4,18-2.9,24.1c0,0,11.5,14.7,10.8,31.6
		c0,0-2.1,21.6-21.9-3.9"/>
	<path class="st10" d="M349.8,417.2c13.2,0,23.9,17.5,23.9,39.1c0,21.6-11,39.5-24.9,39.1"/>
	<g>
		<path class="st3" d="M368.3,396.5c0.5-0.7,10.9-21,30.1-20.7c14.9,0,18.1,16.1,18.1,16.1s2.3,6-12.1,6.9
			C390.1,399.7,366.1,399.5,368.3,396.5z"/>
		<circle class="st11" cx="395.1" cy="387.8" r="9.9"/>
		<circle class="st12" cx="395.1" cy="387.8" r="4.8"/>
		<ellipse class="st3" cx="388.1" cy="387.8" rx="7" ry="3.4"/>
	</g>
	<path class="st13" d="M368.2,395.1c0,0,4.2-25.6,29.7-28.7s21.5,24.7,21.5,24.7s-2.7-20.8-19.4-20.1
		C383.3,371.6,368.2,395.1,368.2,395.1z"/>
	<g>
		<path class="st3" d="M336.6,392.4c-0.5-0.7-10.9-21-30.1-20.7c-14.9,0-18.1,16.1-18.1,16.1s-2.3,6,12.1,6.9
			C314.8,395.5,338.8,395.3,336.6,392.4z"/>
		<circle class="st11" cx="309.8" cy="383.6" r="9.9"/>
		<circle class="st12" cx="309.8" cy="383.6" r="4.8"/>
		<ellipse class="st3" cx="316.8" cy="383.6" rx="7" ry="3.4"/>
	</g>
	<path class="st9" d="M336.7,390.9c0,0-4.2-25.6-29.7-28.7c-25.6-3.2-21.5,24.7-21.5,24.7s2.7-20.8,19.4-20.1
		C321.6,367.5,336.7,390.9,336.7,390.9z"/>
	<path class="st9" d="M348.7,432.6c-7.1,0-12.8-6.1-12.8-13.7s5.7-13.7,12.8-13.7"/>
	<path class="st13" d="M348.7,432.6c7.1,0,12.8-6.1,12.8-13.7s-5.7-13.7-12.8-13.7V432.6z"/>
	<path class="st9" d="M348.7,498.6c-7.1,0-12.8-4-12.8-8.8c0-4.9,5.7-8.8,12.8-8.8"/>
	<path class="st13" d="M348.7,498.6c7.1,0,12.8-4,12.8-8.8c0-4.9-5.7-8.8-12.8-8.8V498.6z"/>
	<ellipse id="boca_1_" cx="349.8" cy="465.2" rx="10.2" ry="15.8"/>
</g>
</svg>
