<?xml version="1.0" encoding="utf-8"?>
<!-- Generator: Adobe Illustrator 19.2.1, SVG Export Plug-In . SVG Version: 6.00 Build 0)  -->
<svg version="1.1" id="Layer_1" xmlns="http://www.w3.org/2000/svg" xmlns:xlink="http://www.w3.org/1999/xlink" x="0px" y="0px"
	 viewBox="0 0 648 648" style="enable-background:new 0 0 648 648;" xml:space="preserve">
<style type="text/css">
	.st0{fill:#EAEAF0;}
	.st1{fill:#DAD6E4;}
	.st2{fill:#FFFFFF;}
	.st3{opacity:0.5;}
	.st4{fill:none;stroke:#FFFFFF;stroke-width:2;stroke-miterlimit:10;stroke-dasharray:12.094,12.094;}
	.st5{fill:#2E1800;}
	.st6{fill:#EBCABC;}
	.st7{fill:none;stroke:#D9AC95;stroke-width:3;stroke-miterlimit:10;}
	.st8{fill:#D9AC95;}
	.st9{fill:none;stroke:#C69985;stroke-width:3;stroke-miterlimit:10;}
	.st10{fill:#642420;}
	.st11{fill:#231F20;}
	.st12{fill:#C69985;}
</style>
<circle class="st0" cx="324" cy="324" r="323.4"/>
<circle class="st1" cx="324" cy="324" r="300.3"/>
<circle class="st2" cx="324" cy="324" r="225.2"/>
<g class="st3">
	<circle class="st4" cx="324" cy="324" r="242.5"/>
</g>
<g>
	<path class="st5" d="M235.2,301.5l0.3-19.8c0,0-15.1-35.3-11.6-72.1s26.7-69.8,45.7-73.2s33.3,10,33.3,10h8.6
		c0,0,15.5-12,44.8-10.6s54.6,27.8,63.7,50.8s-3.7,96.2-3.7,96.2v23.5H235.5L235.2,301.5z"/>
	<path id="pele_3_" class="st6" d="M324.5,200.9c0,0-44.5-3.8-56.1,0c0,0-24,4.8-25.9,34.5l-6.7,186.1c0,0-4.6,55.4,23.8,71.1
		c0.8,0.5,1.7,0.9,2.5,1.4c3.4,2.1,18.2,9.1,62.5,6.6V200.9z"/>
	<path id="sobrancelha_3_" class="st5" d="M312.7,340.9l-5.2-36.1c0,0-1.8-12.4-18.7-14.9c0,0-26.4-2-27.5-1.6
		c0,0-13.5-0.2-10.8,15.8l3.6,30.6c0,0,4.5-21,17.3-24.8c0,0,15.1-4,26.4,10.3C297.8,320.1,312,336.8,312.7,340.9z"/>
	<path id="orelha_3_" class="st6" d="M240,302.8c0,0-15.1-8.7-16.5,17.6c0,0,0.4,18,2.9,24.1c0,0-11.5,14.7-10.8,31.6
		c0,0,2.1,21.6,21.9-3.9"/>
	<path class="st7" d="M323.5,466c-12.8-0.8-22.9-18-22.9-39.1c0-21.6,10.7-39.1,23.9-39.1"/>
	<path class="st7" d="M324.5,466.1c-0.3,0-0.6,0-1,0"/>
	<path id="pele_2_" class="st8" d="M323.5,200.9c0,0,44.5-3.8,56.1,0c0,0,24,4.8,25.9,34.5l6.7,186.1c0,0,4.6,55.4-23.8,71.1
		c-0.8,0.5-1.7,0.9-2.5,1.4c-3.4,2.1-18.2,9.1-62.5,6.6V200.9z"/>
	<path id="sobrancelha_2_" class="st5" d="M336,340.9l5.2-36.1c0,0,1.8-12.4,18.7-14.9c0,0,26.4-2,27.5-1.6c0,0,13.5-0.2,10.8,15.8
		l-3.6,30.6c0,0-4.5-21-17.3-24.8c0,0-15.1-4-26.4,10.3C350.9,320.1,336.7,336.8,336,340.9z"/>
	<path id="orelha_2_" class="st8" d="M408,302.8c0,0,15.1-8.7,16.5,17.6c0,0-0.4,18-2.9,24.1c0,0,11.5,14.7,10.8,31.6
		c0,0-2.1,21.6-21.9-3.9"/>
	<path class="st9" d="M324.5,387.8c13.2,0,23.9,17.5,23.9,39.1c0,21.6-11,39.5-24.9,39.1"/>
	<g>
		<path class="st2" d="M343,367.2c0.5-0.7,10.9-21,30.1-20.7c14.9,0,18.1,16.1,18.1,16.1s2.3,6-12.1,6.9
			C364.8,370.3,340.7,370.1,343,367.2z"/>
		<circle class="st10" cx="369.8" cy="358.4" r="9.9"/>
		<circle class="st11" cx="369.8" cy="358.4" r="4.8"/>
		<ellipse class="st2" cx="362.8" cy="358.4" rx="7" ry="3.4"/>
	</g>
	<path class="st12" d="M342.8,365.7c0,0,4.2-25.6,29.7-28.7c25.6-3.2,21.5,24.7,21.5,24.7s-2.7-20.8-19.4-20.1
		C358,342.3,342.8,365.7,342.8,365.7z"/>
	<g>
		<path class="st2" d="M311.3,363c-0.5-0.7-10.9-21-30.1-20.7c-14.9,0-18.1,16.1-18.1,16.1s-2.3,6,12.1,6.9
			C289.5,366.2,313.5,366,311.3,363z"/>
		<circle class="st10" cx="284.4" cy="354.3" r="9.9"/>
		<circle class="st11" cx="284.4" cy="354.3" r="4.8"/>
		<ellipse class="st2" cx="291.5" cy="354.3" rx="7" ry="3.4"/>
	</g>
	<path class="st8" d="M311.4,361.6c0,0-4.2-25.6-29.7-28.7s-21.5,24.7-21.5,24.7s2.7-20.8,19.4-20.1
		C296.3,338.1,311.4,361.6,311.4,361.6z"/>
	<path class="st8" d="M323.4,403.3c-7.1,0-12.8-6.1-12.8-13.7c0-7.5,5.7-13.7,12.8-13.7"/>
	<path class="st12" d="M323.4,403.3c7.1,0,12.8-6.1,12.8-13.7c0-7.5-5.7-13.7-12.8-13.7V403.3z"/>
	<path class="st8" d="M323.4,469.3c-7.1,0-12.8-4-12.8-8.8c0-4.9,5.7-8.8,12.8-8.8"/>
	<path class="st12" d="M323.4,469.3c7.1,0,12.8-4,12.8-8.8c0-4.9-5.7-8.8-12.8-8.8V469.3z"/>
	<ellipse id="boca_1_" cx="324.5" cy="435.8" rx="10.2" ry="15.8"/>
</g>
</svg>
