<?xml version="1.0" encoding="utf-8"?>
<!-- Generator: Adobe Illustrator 19.2.1, SVG Export Plug-In . SVG Version: 6.00 Build 0)  -->
<svg version="1.1" id="Layer_1" xmlns="http://www.w3.org/2000/svg" xmlns:xlink="http://www.w3.org/1999/xlink" x="0px" y="0px"
	 viewBox="0 0 248 400" style="enable-background:new 0 0 248 400;" xml:space="preserve">
<style type="text/css">
	.st0{fill:#2E1800;}
	.st1{fill:#EBCABC;}
	.st2{fill:none;stroke:#D9AC95;stroke-width:3;stroke-miterlimit:10;}
	.st3{fill:#D9AC95;}
	.st4{fill:none;stroke:#C69985;stroke-width:3;stroke-miterlimit:10;}
	.st5{fill:#FFFFFF;}
	.st6{fill:#642420;}
	.st7{fill:#231F20;}
	.st8{fill:#C69985;}
</style>
<g>
	<path class="st0" d="M34,179.3l0.3-19.8c0,0-15.1-35.3-11.6-72.1s26.7-69.8,45.7-73.2s33.3,10,33.3,10h8.6c0,0,15.5-12,44.8-10.6
		s54.6,27.8,63.7,50.8s-3.7,96.2-3.7,96.2v23.5H34.3L34,179.3z"/>
	<path id="pele_3_" class="st1" d="M123.3,78.7c0,0-44.5-3.8-56.1,0c0,0-24,4.8-25.9,34.5l-6.7,186.1c0,0-4.6,55.4,23.8,71.1
		c0.8,0.5,1.7,0.9,2.5,1.4c3.4,2.1,18.2,9.1,62.5,6.6V78.7z"/>
	<path id="sobrancelha_3_" class="st0" d="M111.5,218.8l-5.2-36.1c0,0-1.8-12.4-18.7-14.9c0,0-26.4-2-27.5-1.6
		c0,0-13.5-0.2-10.8,15.8l3.6,30.6c0,0,4.5-21,17.3-24.8c0,0,15.1-4,26.4,10.3C96.6,197.9,110.8,214.6,111.5,218.8z"/>
	<path id="orelha_3_" class="st1" d="M38.8,180.7c0,0-15.1-8.7-16.5,17.6c0,0,0.4,18,2.9,24.1c0,0-11.5,14.7-10.8,31.6
		c0,0,2.1,21.6,21.9-3.9"/>
	<path class="st2" d="M122.3,343.9c-12.8-0.8-22.9-18-22.9-39.1c0-21.6,10.7-39.1,23.9-39.1"/>
	<path class="st2" d="M123.3,343.9c-0.3,0-0.6,0-1,0"/>
	<path id="pele_2_" class="st3" d="M122.3,78.8c0,0,44.5-3.8,56.1,0c0,0,24,4.8,25.9,34.5l6.7,186.1c0,0,4.6,55.4-23.8,71.1
		c-0.8,0.5-1.7,0.9-2.5,1.4c-3.4,2.1-18.2,9.1-62.5,6.6V78.8z"/>
	<path id="sobrancelha_2_" class="st0" d="M134.8,218.8l5.2-36.1c0,0,1.8-12.4,18.7-14.9c0,0,26.4-2,27.5-1.6
		c0,0,13.5-0.2,10.8,15.8l-3.6,30.6c0,0-4.5-21-17.3-24.8c0,0-15.1-4-26.4,10.3C149.7,197.9,135.5,214.6,134.8,218.8z"/>
	<path id="orelha_2_" class="st3" d="M206.8,180.7c0,0,15.1-8.7,16.5,17.6c0,0-0.4,18-2.9,24.1c0,0,11.5,14.7,10.8,31.6
		c0,0-2.1,21.6-21.9-3.9"/>
	<path class="st4" d="M123.3,265.7c13.2,0,23.9,17.5,23.9,39.1c0,21.6-11,39.5-24.9,39.1"/>
	<g>
		<path class="st5" d="M141.8,245c0.5-0.7,10.9-21,30.1-20.7c14.9,0,18.1,16.1,18.1,16.1s2.3,6-12.1,6.9S139.6,248,141.8,245z"/>
		<circle class="st6" cx="168.6" cy="236.3" r="9.9"/>
		<circle class="st7" cx="168.6" cy="236.3" r="4.8"/>
		<ellipse class="st5" cx="161.6" cy="236.3" rx="7" ry="3.4"/>
	</g>
	<path class="st8" d="M141.7,243.6c0,0,4.2-25.6,29.7-28.7s21.5,24.7,21.5,24.7s-2.7-20.8-19.4-20.1
		C156.8,220.1,141.7,243.6,141.7,243.6z"/>
	<g>
		<path class="st5" d="M110.1,240.9c-0.5-0.7-10.9-21-30.1-20.7c-14.9,0-18.1,16.1-18.1,16.1s-2.3,6,12.1,6.9
			S112.3,243.8,110.1,240.9z"/>
		<circle class="st6" cx="83.3" cy="232.1" r="9.9"/>
		<circle class="st7" cx="83.3" cy="232.1" r="4.8"/>
		<ellipse class="st5" cx="90.3" cy="232.1" rx="7" ry="3.4"/>
	</g>
	<path class="st3" d="M110.2,239.4c0,0-4.2-25.6-29.7-28.7S59,235.5,59,235.5s2.7-20.8,19.4-20.1C95.1,216,110.2,239.4,110.2,239.4z
		"/>
	<path class="st3" d="M122.2,281.1c-7.1,0-12.8-6.1-12.8-13.7s5.7-13.7,12.8-13.7"/>
	<path class="st8" d="M122.2,281.1c7.1,0,12.8-6.1,12.8-13.7s-5.7-13.7-12.8-13.7V281.1z"/>
	<path class="st3" d="M122.2,347.1c-7.1,0-12.8-4-12.8-8.8c0-4.9,5.7-8.8,12.8-8.8"/>
	<path class="st8" d="M122.2,347.1c7.1,0,12.8-4,12.8-8.8c0-4.9-5.7-8.8-12.8-8.8V347.1z"/>
	<ellipse id="boca_1_" cx="123.3" cy="313.7" rx="10.2" ry="15.8"/>
</g>
</svg>
