<?xml version="1.0" encoding="utf-8"?>
<!-- Generator: Adobe Illustrator 21.1.0, SVG Export Plug-In . SVG Version: 6.00 Build 0)  -->
<svg version="1.1" xmlns="http://www.w3.org/2000/svg" xmlns:xlink="http://www.w3.org/1999/xlink" x="0px" y="0px"
	 viewBox="0 0 1000 1067.2" style="enable-background:new 0 0 1000 1067.2;" xml:space="preserve">
<style type="text/css">
	.st0{display:none;}
	.st1{display:inline;fill:#D9AC95;}
	.st2{fill:#2E1800;}
	.st3{fill:#253C69;}
	.st4{fill:#EBCABC;}
	.st5{fill:#7A716E;}
	.st6{fill:#F8B018;}
	.st7{fill:none;stroke:#000000;stroke-width:3;stroke-miterlimit:10;}
	.st8{fill:none;stroke:#D9AC95;stroke-width:3;stroke-miterlimit:10;}
	.st9{fill:#012952;}
	.st10{fill:#D9AC95;}
	.st11{fill:#695F60;}
	.st12{fill:#DC9527;}
	.st13{fill:#EAEAEA;}
	.st14{fill:#C69985;}
	.st15{fill:none;stroke:#C69985;stroke-width:3;stroke-miterlimit:10;}
	.st16{fill:#FFFFFF;}
	.st17{fill:#642420;}
	.st18{fill:#231F20;}
</style>
<g id="Layer_1" class="st0">
	<path class="st1" d="M813,680.2"/>
</g>
<g id="cabelo">
	<path class="st2" d="M356.2,269.4l0.4-27.6c0,0-21-49.1-16.2-100.2c4.8-51.1,37.1-97,63.5-101.8s46.3,14,46.3,14h12
		c0,0,21.6-16.7,62.3-14.8s75.8,38.7,88.6,70.6c12.8,31.9-5.2,133.7-5.2,133.7v32.7H356.6L356.2,269.4z"/>
</g>
<g id="esq">
	<path id="blusa" class="st3" d="M168.8,669.6c10.7-16.3,28-28.2,35.7-32.2c2.8-1.5,4.8-4.1,5.5-7.2c25.6-115,148.8-152,148.8-152
		L480,562.7l-1,165l-165.5,0L168.8,669.6z"/>
	<path id="pele" class="st4" d="M480.3,129.6c0,0-61.9-5.3-78,0c0,0-33.3,6.7-36,48L357,436.2c0,0-6.4,77.1,33.1,98.8
		c1.2,0.6,2.3,1.3,3.4,2c4.7,2.9,25.4,12.6,86.9,9.2V129.6z"/>
	<path id="pescoco" class="st4" d="M424.9,545.4c0,0,18.7,42.9,55.4,38.2v-37.3L424.9,545.4z"/>
	<polygon id="mic_1_" points="442.8,529.2 464,539.3 397.2,680.2 375.5,673.4 	"/>
	<path id="calca" class="st5" d="M313.5,727.7h166.8l-0.3,145c-14.3-1-24.5,28.5-24.5,28.5c-11,28.5-15.5,141.5-15.5,141.5
		l-10.3-10.6c-2.5-2.6-4.4-5.5-5.8-8.8L302.7,740.2"/>
	<polygon id="cinto1_2_" class="st6" points="313.5,765.5 419,765.5 419,727.7 312.5,727.7 301.4,740.2 	"/>
	<polygon id="sapato" class="st6" points="433.2,1035.7 412.3,1050.6 440.3,1050.6 440,1042.7 	"/>
	<path id="braco_3_" class="st4" d="M319.3,649.3l47.7-56.4l42.7-21.3l34.7,40.7l-13.3,6.7v15l-0.3,14.7l0,0l-3,21l-23.3,5.3
		l-19.3-10l-61.3,50.7c-43.4,56.1-96.1,69.7-121.3,73c-16,2.1-31.6-6.8-37.4-21.9c-10.3-26.9-5.3-67.1-5.3-67.1
		c2.2-13.9,4.1-21.6,9.2-30l118.7-4.9L319.3,649.3"/>
	<rect id="cinto2" x="435.2" y="727.7" class="st6" width="45.1" height="37.7"/>
	<circle cx="309.7" cy="667.5" r="27.9"/>
	<polygon points="343.2,699.5 331.9,685.8 327,681.2 306,695.4 323.7,715.6 	"/>
	
		<ellipse transform="matrix(0.7071 -0.7071 0.7071 0.7071 -379.7164 410.092)" class="st6" cx="305.2" cy="663.4" rx="19.9" ry="14.9"/>
	<path id="sobrancelha" class="st2" d="M464,324.2l-7.2-50.2c0,0-2.5-17.2-26-20.7c0,0-36.8-2.8-38.2-2.2c0,0-18.8-0.2-15,22l5,42.5
		c0,0,6.2-29.2,24-34.5c0,0,21-5.5,36.8,14.2C443.2,295.2,463,318.5,464,324.2z"/>
	<path id="orelha" class="st4" d="M363,271.3c0,0-21-12-23,24.5c0,0,0.5,25,4,33.5c0,0-16,20.5-15,44c0,0,2.9,30,30.5-5.5"/>
	<path class="st7" d="M319.3,649.3"/>
	<path class="st8" d="M479,498.2c-17.7-1.1-31.9-25-31.9-54.4c0-30.1,14.9-54.4,33.2-54.4"/>
	<path class="st8" d="M480.4,498.2c-0.4,0-0.9,0-1.3,0"/>
</g>
<g id="dir">
	<path id="blusa_1_" class="st9" d="M600.2,478.2c0,0,128.2,25.4,140.8,154.1c0,0,66.7,12.6,72,48H671.7l-12.7,60H479v-208
		L600.2,478.2z"/>
	<path id="pele_1_" class="st10" d="M479,129.6c0,0,61.9-5.3,78,0c0,0,33.3,6.7,36,48l9.3,258.7c0,0,6.4,77.1-33.1,98.8
		c-1.2,0.6-2.3,1.3-3.4,2c-4.7,2.9-25.4,12.6-86.9,9.2V129.6z"/>
	<path id="pescoco_1_" class="st10" d="M534.4,545.4c0,0-18.7,42.9-55.4,38.2v-37.3L534.4,545.4z"/>
	<path id="calca_1_" class="st11" d="M646.8,727.8H480v145c12.8-1.9,24.8,28.5,24.8,28.5c11,28.5,15.5,141.5,15.5,141.5l10.3-10.6
		c2.5-2.6,4.4-5.5,5.8-8.8l121.2-283.1"/>
	<polygon id="cinto1_1_" class="st12" points="646.9,765.5 541.4,765.5 541.4,727.8 647.9,727.8 659,740.2 	"/>
	<polygon id="sapato_1_" class="st6" points="527.1,1035.7 548,1050.6 520,1050.6 520.4,1042.8 	"/>
	<rect id="cinto2_1_" x="479" y="727.8" class="st12" width="45.1" height="37.7"/>
	<path id="sobrancelha_1_" class="st2" d="M496.4,324.3l7.2-50.2c0,0,2.5-17.2,26-20.7c0,0,36.8-2.8,38.2-2.2c0,0,18.8-0.2,15,22
		l-5,42.5c0,0-6.2-29.2-24-34.5c0,0-21-5.5-36.8,14.2C517.1,295.3,497.4,318.5,496.4,324.3z"/>
	<path id="orelha_1_" class="st10" d="M596.4,271.3c0,0,21-12,23,24.5c0,0-0.5,25-4,33.5c0,0,16,20.5,15,44c0,0-2.9,30-30.5-5.5"/>
	<polygon class="st13" points="631,622.2 620,686.7 534,686.7 545.5,622.2 	"/>
	<path class="st14" d="M813,680.2c0,0,11.3,88-24.7,96.7c0,0-45.3,18.7-97.3,3.3c0,0-34-3.3-50-30l31.3-70H813z"/>
	<polygon class="st10" points="677.7,668.9 643.7,751.6 579,721.6 569.7,696.9 573,668.9 595.7,658.9 629,658.9 	"/>
	<path class="st15" d="M480.4,389.4c18.4,0,33.2,24.4,33.2,54.4c0,30.1-15.3,54.9-34.6,54.4"/>
</g>
<g id="comum">
	<path class="st10" d="M478.8,410.9c-9.8,0-17.8-8.5-17.8-19s8-19,17.8-19"/>
	<path class="st14" d="M478.8,410.9c9.8,0,17.8-8.5,17.8-19s-8-19-17.8-19V410.9z"/>
	<path class="st10" d="M478.8,502.7c-9.8,0-17.8-5.5-17.8-12.3c0-6.8,8-12.3,17.8-12.3"/>
	<path class="st14" d="M478.8,502.7c9.8,0,17.8-5.5,17.8-12.3c0-6.8-8-12.3-17.8-12.3V502.7z"/>
	<ellipse id="boca" cx="480.3" cy="456.2" rx="14.1" ry="22"/>
	<circle id="mic" cx="459.6" cy="517.4" r="22.1"/>
	<g id="Layer_5">
		<g>
			<path class="st16" d="M506.1,360.7c0.8-1,15.2-29.1,41.9-28.7c20.8,0,25.1,22.4,25.1,22.4s3.2,8.4-16.8,9.6
				C536.4,365.1,503,364.9,506.1,360.7z"/>
			<circle class="st17" cx="543.4" cy="348.6" r="13.8"/>
			<circle class="st18" cx="543.4" cy="348.6" r="6.7"/>
			<ellipse class="st16" cx="533.6" cy="348.6" rx="9.8" ry="4.7"/>
		</g>
		<path class="st14" d="M505.9,358.8c0,0,5.8-35.5,41.3-39.9c35.5-4.4,29.9,34.4,29.9,34.4s-3.8-28.9-27-28
			C526.9,326.1,505.9,358.8,505.9,358.8z"/>
		<g>
			<path class="st16" d="M462,355c-0.8-1-15.2-29.1-41.9-28.7c-20.8,0-25.1,22.4-25.1,22.4s-3.2,8.4,16.8,9.6
				C431.7,359.4,465.1,359.1,462,355z"/>
			<circle class="st17" cx="424.7" cy="342.8" r="13.8"/>
			<circle class="st18" cx="424.7" cy="342.8" r="6.7"/>
			<ellipse class="st16" cx="434.5" cy="342.8" rx="9.8" ry="4.7"/>
		</g>
		<path class="st10" d="M462.2,353c0,0-5.8-35.5-41.3-39.9c-35.5-4.4-29.9,34.4-29.9,34.4s3.8-28.9,27-28
			C441.2,320.4,462.2,353,462.2,353z"/>
	</g>
</g>
</svg>
