<?xml version="1.0" encoding="utf-8"?>
<!-- Generator: Adobe Illustrator 19.2.1, SVG Export Plug-In . SVG Version: 6.00 Build 0)  -->
<svg version="1.1" xmlns="http://www.w3.org/2000/svg" xmlns:xlink="http://www.w3.org/1999/xlink" x="0px" y="0px"
	 viewBox="0 0 1259.7 1234.8" style="enable-background:new 0 0 1259.7 1234.8;" xml:space="preserve">
<style type="text/css">
	.st0{display:none;}
	.st1{display:inline;fill:#D9AC95;}
	.st2{fill:#2E1800;}
	.st3{fill:#253C69;}
	.st4{fill:#EBCABC;}
	.st5{fill:#7A716E;}
	.st6{fill:#F8B018;}
	.st7{fill:none;stroke:#000000;stroke-width:3;stroke-miterlimit:10;}
	.st8{fill:none;stroke:#D9AC95;stroke-width:3;stroke-miterlimit:10;}
	.st9{fill:#012952;}
	.st10{fill:#D9AC95;}
	.st11{fill:#695F60;}
	.st12{fill:#DC9527;}
	.st13{fill:#EAEAEA;}
	.st14{fill:#C69985;}
	.st15{fill:none;stroke:#C69985;stroke-width:3;stroke-miterlimit:10;}
	.st16{fill:#FFFFFF;}
	.st17{fill:#642420;}
	.st18{fill:#231F20;}
	.st19{fill:#46367D;}
	.st20{fill:#3E2E6F;}
	.st21{fill:#F9C700;}
	.st22{fill:#BD9A0D;}
</style>
<g id="Layer_1" class="st0">
	<path class="st1" d="M939.5,866.2"/>
</g>
<g id="cabelo">
</g>
<g id="esq">
</g>
<g id="dir">
</g>
<g id="comum">
	<g id="Layer_5">
	</g>
</g>
<g id="Layer_7">
</g>
<g id="Layer_8">
	<g>
		<path class="st2" d="M573,197.6l-2.1-18.4c0,0-18.1-30.9-19.3-65.3s16.4-67.7,33.6-73.1s32,5.4,32,5.4l8-1c0,0,12.9-13,40.2-15.1
			c27.2-2.1,53.7,19.3,64.9,39.4c11.2,20.2,7.9,89.4,7.9,89.4l2.8,21.8L573.8,202L573,197.6z"/>
		<path id="blusa_3_" class="st3" d="M482.4,479.6c5.7-11.8,16.2-21.1,21-24.5c1.7-1.2,2.9-3.2,3-5.3c7.2-78.6,86-113.7,86-113.7
			l87.8,46L693.6,492l-110.1,14L482.4,479.6z"/>
		<path id="pele_3_" class="st4" d="M643.7,94.1c0,0-41.6,1.7-51.9,6.6c0,0-21.6,7.3-19.9,35l15.8,172.8c0,0,2.3,51.8,30.4,62.9
			c0.8,0.3,1.6,0.7,2.4,1c3.4,1.5,17.9,6.2,58.5-1.3L643.7,94.1z"/>
		<path id="pescoco_3_" class="st4" d="M642.1,375.3c0,0,16.1,26.9,40.1,20.7l-3.2-24.8L642.1,375.3z"/>
		<path id="calca_3_" class="st5" d="M583.5,506l110.9-14.2l12.1,96.4c-9.6,0.5-13.9,21-13.9,21c-4.9,19.9,1.7,95.4,1.7,95.4
			l-7.7-6.2c-1.9-1.5-3.4-3.3-4.6-5.4L577.4,515.2"/>
		<polygon id="cinto1_4_" class="st6" points="586.7,531.1 656.9,522.1 653.7,497 582.8,506.1 576.5,515.3 		"/>
		<polygon id="sapato_3_" class="st6" points="689.3,700.6 676.6,712.3 695.3,709.9 694.4,704.7 		"/>
		
			<rect id="cinto2_3_" x="666" y="493.7" transform="matrix(0.9919 -0.1267 0.1267 0.9919 -58.6403 90.3359)" class="st6" width="30.2" height="25.3"/>
		<path id="sobrancelha_3_" class="st2" d="M649.3,224.9l-9.1-32.8c0,0-3.1-11.3-19.1-11.6c0,0-24.7,1.3-25.6,1.8
			c0,0-12.5,1.4-8.1,15.9l6.9,27.8c0,0,1.7-20,13-25c0,0,13.5-5.4,25.6,6.4C633.1,207.4,648.2,221.2,649.3,224.9z"/>
		<path id="orelha_3_" class="st4" d="M577.6,198.3c0,0-15-6.2-13.2,18.2c0,0,2.5,16.6,5.5,21.9c0,0-8.9,15-6.2,30.5
			c0,0,4.5,19.7,19.8-6.2"/>
		<path class="st7" d="M580.7,453.4"/>
		<path class="st8" d="M674.1,339.3c-11.9,0.7-23.3-13.9-25.8-33.4c-2.6-20,5.3-37.4,17.5-39"/>
		<path class="st8" d="M675,339.2c-0.3,0-0.6,0.1-0.9,0.1"/>
		<path id="blusa_2_" class="st9" d="M752.9,315.7c0,0,87.4,6,106.7,90.5c0,0,45.4,2.7,52,25.8l-94,12l-3.4,41l-119.6,15.3
			L677,361.9L752.9,315.7z"/>
		<path id="pele_2_" class="st10" d="M642.8,94.2c0,0,40.7-8.8,51.9-6.6c0,0,22.7,1.6,28,28.9l28.2,171.2c0,0,10.8,50.7-13.6,68.5
			c-0.7,0.5-1.4,1-2.1,1.6c-2.9,2.3-15.8,10.5-57,13.5L642.8,94.2z"/>
		<path id="pescoco_2_" class="st10" d="M714.9,366c0,0-8.8,30.1-33.6,30.1l-3.2-24.8L714.9,366z"/>
		<path id="calca_2_" class="st11" d="M805.2,477.7l-110.9,14.2l12.3,96.4c8.4-2.3,18.9,16.9,18.9,16.9c9.7,18,22.3,92.8,22.3,92.8
			l5.9-7.9c1.4-1.9,2.5-4.1,3.1-6.3l56.6-198.5"/>
		<polygon id="cinto1_3_" class="st12" points="808.4,502.8 738.2,511.8 735,486.7 805.9,477.6 814.3,485 		"/>
		<polygon id="sapato_2_" class="st6" points="751.7,692.7 766.9,700.8 748.3,703.2 747.8,697.9 		"/>
		
			<rect id="cinto2_2_" x="695.1" y="489.9" transform="matrix(0.9919 -0.1267 0.1267 0.9919 -57.9366 93.9934)" class="st12" width="30.2" height="25.3"/>
		<path id="sobrancelha_2_" class="st2" d="M670.9,222.2l0.6-34c0,0,0.2-11.7,15.5-16c0,0,24.2-4.9,25.2-4.7c0,0,12.4-1.8,11.8,13.4
			l0.3,28.7c0,0-6.6-18.9-18.9-20.9c0,0-14.4-1.9-23.2,12.6C682.2,201.1,671,218.3,670.9,222.2z"/>
		<path id="orelha_2_" class="st10" d="M732.9,178.5c0,0,12.9-9.8,17.3,14.3c0,0,1.8,16.7,0.2,22.6c0,0,12.4,12.3,13.7,28
			c0,0,0.6,20.2-20.7-1.1"/>
		<polygon class="st13" points="785.7,408.9 783.8,452.7 726.7,460 728.8,416.1 		"/>
		<path class="st14" d="M911.6,432c0,0,15,57.6-8.2,66.4c0,0-28.6,16.3-64.4,10.5c0,0-22.9,0.7-35.8-15.7l14.9-49.2L911.6,432z"/>
		<polygon class="st10" points="820.7,436 805.1,493.8 759.5,479.4 751.2,463.8 751.1,444.8 765.3,436.3 787.5,433.4 		"/>
		<path class="st15" d="M665.7,266.9c12.2-1.6,24.2,13.4,26.7,33.4c2.6,20-5.5,37.8-18.4,39.1"/>
		<g>
			<path class="st16" d="M680.4,245.6c0.4-0.7,7.6-20.7,25.4-22.7c13.8-1.8,18.6,12.7,18.6,12.7s2.8,5.3-10.3,7.8
				C701,246,678.7,248.6,680.4,245.6z"/>
			
				<ellipse transform="matrix(0.9919 -0.1267 0.1267 0.9919 -24.0094 91.0775)" class="st17" cx="704.2" cy="234.3" rx="9.2" ry="9.2"/>
			
				<ellipse transform="matrix(0.9919 -0.1267 0.1267 0.9919 -24.0094 91.0775)" class="st18" cx="704.2" cy="234.3" rx="4.5" ry="4.5"/>
			
				<ellipse transform="matrix(0.9919 -0.1267 0.1267 0.9919 -24.1669 90.2606)" class="st16" cx="697.7" cy="235.2" rx="6.6" ry="3.1"/>
		</g>
		<path class="st14" d="M680.1,244.3c0,0,0.8-24.1,24.1-30.1c23.3-5.9,22.8,20.3,22.8,20.3s-5-18.9-20.3-16.3
			S680.1,244.3,680.1,244.3z"/>
		<g>
			<path class="st16" d="M650.6,245.5c-0.6-0.6-12.6-18.1-30.3-15.6c-13.8,1.8-14.8,17-14.8,17s-1.4,5.8,12,4.9
				S653.1,248,650.6,245.5z"/>
			
				<ellipse transform="matrix(0.9919 -0.1267 0.1267 0.9919 -25.4382 81.067)" class="st17" cx="624.8" cy="240.6" rx="9.2" ry="9.2"/>
			
				<ellipse transform="matrix(0.9919 -0.1267 0.1267 0.9919 -25.4382 81.067)" class="st18" cx="624.8" cy="240.6" rx="4.5" ry="4.5"/>
			
				<ellipse transform="matrix(0.9919 -0.1267 0.1267 0.9919 -25.2807 81.8839)" class="st16" cx="631.3" cy="239.7" rx="6.6" ry="3.1"/>
		</g>
		<path class="st10" d="M650.6,244.2c0,0-6.9-23.1-30.9-23s-17,25.4-17,25.4s0.1-19.6,15.6-20.9
			C633.8,224.3,650.6,244.2,650.6,244.2z"/>
		<path class="st10" d="M666.6,281.3c-6.5,0.8-12.6-4.1-13.5-11.1s3.7-13.3,10.2-14.1"/>
		<path class="st14" d="M666.6,281.3c6.5-0.8,11.1-7.2,10.2-14.1c-0.9-7-6.9-12-13.5-11.1L666.6,281.3z"/>
		<path class="st10" d="M674.3,342.3c-6.5,0.8-12.3-2.1-12.9-6.6s4.3-8.8,10.8-9.7"/>
		<path class="st14" d="M674.3,342.3c6.5-0.8,11.4-5.2,10.8-9.7c-0.6-4.5-6.4-7.5-12.9-6.6L674.3,342.3z"/>
		
			<ellipse id="boca_1_" transform="matrix(0.9919 -0.1267 0.1267 0.9919 -34.0164 87.5408)" cx="671.4" cy="311.3" rx="9.5" ry="14.7"/>
		
			<ellipse id="mic_2_" transform="matrix(0.9919 -0.1267 0.1267 0.9919 -39.4595 86.7961)" cx="662.8" cy="353.7" rx="14.8" ry="14.8"/>
		<polygon id="mic_4_" points="652.7,363 667.6,367.9 635.1,467.3 620.1,464.6 		"/>
	</g>
</g>
<g id="Layer_9">
	<polygon class="st19" points="936.4,979.3 98.6,979.3 41.4,517.1 983.6,465.6 	"/>
	<g>
		<path class="st20" d="M431.7,803.2c0,16.7-2.8,31.4-8.4,44.2c-5.6,12.8-13.2,23.6-22.9,32.4c-9.7,8.8-21.1,15.5-34.4,19.9
			s-27.8,6.6-43.5,6.6H170.1V556.2h145.1c18,0,34,2.5,48,7.4c13.9,4.9,25.7,11.8,35.2,20.7c9.5,8.9,16.6,19.5,21.4,32
			c4.7,12.5,7.1,26.3,7.1,41.4c0,9.9-1.5,18.7-4.4,26.6c-3,7.9-6.5,14.7-10.6,20.4c-4.1,5.7-8.4,10.4-12.8,14s-8,6.4-10.6,8.4
			c3.6,2.3,7.9,5.2,12.8,8.8c4.9,3.6,9.7,8.4,14.3,14.2c4.6,5.9,8.4,13.2,11.6,21.9C430.2,780.7,431.7,791.1,431.7,803.2z
			 M340.7,661.9c0-7-2.2-13.6-6.6-19.8c-4.4-6.2-12.5-9.3-24.3-9.3h-53.6v58h53.6c11.8,0,19.9-3.1,24.3-9.3
			C338.5,675.5,340.7,668.9,340.7,661.9z M345.6,798.4c0-7.6-2.3-14.6-6.9-21.1c-4.6-6.4-12.8-9.7-24.6-9.7h-58v62h58
			c11.8,0,20-3.3,24.6-9.9C343.3,813.1,345.6,806,345.6,798.4z"/>
		<path class="st20" d="M491.2,906.4V556.2h86.1v350.2H491.2z"/>
		<path class="st20" d="M896,821.5c-4.9,18.2-13.9,34-27,47.5c-13.1,13.4-27.7,23.5-43.8,30.2c-16.1,6.7-34.6,10.1-55.6,10.1
			c-20.7,0-38.9-3.4-54.6-10.1c-15.7-6.7-30-16.5-42.8-29.3c-9.2-9.2-16.2-19.1-21.1-29.8c-4.9-10.7-8.4-21.9-10.6-33.7
			c-2.1-11.8-3.3-24-3.4-36.6c-0.2-12.6-0.2-25.5-0.2-38.6c0-13.1,0.1-26,0.2-38.6c0.2-12.6,1.3-24.8,3.4-36.6
			c2.1-11.8,5.7-23,10.6-33.7c4.9-10.7,12-20.6,21.1-29.8c12.8-12.8,26.9-22.5,42.3-29.3c15.4-6.7,33.8-10.1,55.1-10.1
			c12.5,0,23.7,0.8,33.7,2.5c10,1.6,19.2,4.2,27.5,7.6c8.4,3.4,16.3,7.9,23.9,13.3c7.5,5.4,15.2,12,23.1,19.9l-58.5,58.5
			c-4.3-4.3-8.2-7.9-11.8-11.1c-3.6-3.1-7.3-5.7-11.1-7.9c-3.8-2.1-7.8-3.7-12-4.7c-4.3-1-9.2-1.5-14.8-1.5
			c-7.9,0-14.7,1.5-20.4,4.4c-5.7,3-10.3,6.6-13.5,10.8c-2,2.6-3.8,5.6-5.4,8.9c-1.6,3.3-3,8-3.9,14c-1,6.1-1.8,14.1-2.5,24.1
			c-0.7,10-1,23-1,39.1c0,16.1,0.3,29.1,1,39.1c0.7,10,1.5,18.1,2.5,24.3c1,6.2,2.3,11,3.9,14.3c1.6,3.3,3.4,6.2,5.4,8.9
			c3.3,4.3,7.8,7.8,13.5,10.6c5.7,2.8,12.5,4.2,20.4,4.2c9.2,0,16.4-1.2,21.6-3.7c5.2-2.5,9.8-5.8,13.8-10.1
			c4.6-4.6,7.9-10.7,9.8-18.2c2-7.5,3-14.3,3-20.2v-3.9h-48.2v-71.8h133.8v47.2C903.4,780.1,900.9,803.3,896,821.5z"/>
	</g>
	<g>
		<path class="st16" d="M415.8,816.7c0,16.7-2.8,31.4-8.4,44.2c-5.6,12.8-13.2,23.6-22.9,32.4c-9.7,8.8-21.1,15.5-34.4,19.9
			s-27.8,6.6-43.5,6.6H154.2V569.7h145.1c18,0,34,2.5,48,7.4c13.9,4.9,25.7,11.8,35.2,20.7c9.5,8.9,16.6,19.5,21.4,32
			c4.7,12.5,7.1,26.3,7.1,41.4c0,9.9-1.5,18.7-4.4,26.6c-3,7.9-6.5,14.7-10.6,20.4c-4.1,5.7-8.4,10.4-12.8,14s-8,6.4-10.6,8.4
			c3.6,2.3,7.9,5.2,12.8,8.8c4.9,3.6,9.7,8.4,14.3,14.2c4.6,5.9,8.4,13.2,11.6,21.9C414.3,794.2,415.8,804.6,415.8,816.7z
			 M324.9,675.4c0-7-2.2-13.6-6.6-19.8c-4.4-6.2-12.5-9.3-24.3-9.3h-53.6v58h53.6c11.8,0,19.9-3.1,24.3-9.3
			C322.6,689,324.9,682.4,324.9,675.4z M329.8,811.9c0-7.6-2.3-14.6-6.9-21.1c-4.6-6.4-12.8-9.7-24.6-9.7h-58v62h58
			c11.8,0,20-3.3,24.6-9.9C327.5,826.6,329.8,819.5,329.8,811.9z"/>
		<path class="st16" d="M475.4,919.8V569.7h86.1v350.2H475.4z"/>
		<path class="st16" d="M880.1,835c-4.9,18.2-13.9,34-27,47.5c-13.1,13.4-27.7,23.5-43.8,30.2c-16.1,6.7-34.6,10.1-55.6,10.1
			c-20.7,0-38.9-3.4-54.6-10.1c-15.7-6.7-30-16.5-42.8-29.3c-9.2-9.2-16.2-19.1-21.1-29.8c-4.9-10.7-8.4-21.9-10.6-33.7
			c-2.1-11.8-3.3-24-3.4-36.6c-0.2-12.6-0.2-25.5-0.2-38.6c0-13.1,0.1-26,0.2-38.6c0.2-12.6,1.3-24.8,3.4-36.6
			c2.1-11.8,5.7-23,10.6-33.7c4.9-10.7,12-20.6,21.1-29.8c12.8-12.8,26.9-22.5,42.3-29.3c15.4-6.7,33.8-10.1,55.1-10.1
			c12.5,0,23.7,0.8,33.7,2.5c10,1.6,19.2,4.2,27.5,7.6c8.4,3.4,16.3,7.9,23.9,13.3c7.5,5.4,15.2,12,23.1,19.9l-58.5,58.5
			c-4.3-4.3-8.2-7.9-11.8-11.1c-3.6-3.1-7.3-5.7-11.1-7.9c-3.8-2.1-7.8-3.7-12-4.7c-4.3-1-9.2-1.5-14.8-1.5
			c-7.9,0-14.7,1.5-20.4,4.4c-5.7,3-10.3,6.6-13.5,10.8c-2,2.6-3.8,5.6-5.4,8.9c-1.6,3.3-3,8-3.9,14c-1,6.1-1.8,14.1-2.5,24.1
			c-0.7,10-1,23-1,39.1c0,16.1,0.3,29.1,1,39.1c0.7,10,1.5,18.1,2.5,24.3c1,6.2,2.3,11,3.9,14.3c1.6,3.3,3.4,6.2,5.4,8.9
			c3.3,4.3,7.8,7.8,13.5,10.6c5.7,2.8,12.5,4.2,20.4,4.2c9.2,0,16.4-1.2,21.6-3.7c5.2-2.5,9.8-5.8,13.8-10.1
			c4.6-4.6,7.9-10.7,9.8-18.2c2-7.5,3-14.3,3-20.2V790h-48.2v-71.8h133.8v47.2C887.5,793.6,885,816.8,880.1,835z"/>
	</g>
	<polygon class="st21" points="1199.2,1099.6 154.5,1187.1 118.8,898.8 1211.7,830.5 	"/>
	<g>
		<g>
			<path class="st22" d="M238.9,991.9l2.9,34.3l72.5-6.2l3.6,42.8l-72.5,6.2l6.4,75.5l-48,4.1l-16.6-195.4L320,941.9l3.6,42.8
				L238.9,991.9z"/>
			<path class="st22" d="M460.2,1126.8l-11.5-28.3l-60.1,5.1l-7.1,29.9l-50.2,4.3l54.5-201.5l37.1-3.1l87.7,189.4L460.2,1126.8z
				 M411.7,1008.8l-13.1,53.6l34-2.9L411.7,1008.8z"/>
			<path class="st22" d="M665.8,1069.6c-3.2,8.9-7.9,16.8-14.2,23.5c-6.3,6.7-13.8,12.1-22.5,16.2c-8.8,4.1-18.2,6.5-28.3,7.4
				c-10.3,0.9-20,0-29.1-2.5c-9.2-2.5-17.4-6.6-24.7-12.1c-7.3-5.6-13.2-12.5-17.8-20.7c-4.6-8.3-7.3-17.8-8.2-28.6l-10.8-126.8
				l48-4.1l10.7,125.7c0.8,9.2,3.7,16,8.7,20.6c5,4.6,11.5,6.5,19.6,5.8c8-0.7,14.2-3.7,18.6-9c4.3-5.3,6.1-12.6,5.3-21.7
				l-10.7-125.7l48-4.1l10.8,126.8C670.2,1050.8,669,1060.6,665.8,1069.6z"/>
			<path class="st22" d="M837.4,1034.5c0.8,9.9-0.4,18.8-3.8,26.9c-3.4,8-8.3,14.9-14.7,20.7c-6.4,5.8-14.1,10.4-23,13.8
				c-8.9,3.4-18.5,5.6-28.8,6.5c-7.5,0.6-14.7,0.8-21.5,0.6c-6.8-0.2-13.5-1.1-19.8-2.5c-6.4-1.4-12.5-3.5-18.2-6.3
				c-5.8-2.8-11.3-6.6-16.7-11.3l28.1-33.4c5.6,4.7,12.4,7.7,20.7,9c8.2,1.3,16.3,1.7,24.1,1c18.7-1.6,27.5-8.2,26.5-19.9
				c-0.4-4.9-2-8.7-4.8-11.2c-3-2.5-7.4-3.9-13.3-4.1l-23.9-1.3c-17.6-1.1-31.2-5.7-40.7-14c-9.7-8.4-15.3-21.1-16.8-38.1
				c-0.8-9,0.2-17.3,2.8-25.1c2.7-7.8,6.8-14.7,12.5-20.7c5.7-6,12.8-10.9,21.3-14.8c8.5-3.9,18.4-6.3,29.5-7.2
				c14.1-1.2,26.6-0.5,37.6,2.2c11,2.7,21.1,7.8,30.2,15.5l-27.6,32.8c-3.4-2.8-6.9-4.9-10.5-6.2c-3.6-1.3-7.1-2.1-10.4-2.6
				c-3.4-0.4-6.5-0.6-9.4-0.3c-2.9,0.2-5.5,0.5-7.7,0.7c-4.2,0.4-7.7,1.2-10.6,2.6c-2.8,1.3-5.1,3-6.9,4.9c-1.8,1.9-3,3.9-3.8,6.1
				c-0.7,2.2-1,4.4-0.8,6.6c0.1,1.3,0.5,2.7,1.2,4.3c0.7,1.6,1.8,3.1,3.4,4.4c1.4,1.2,3.2,2.2,5.4,3.1c2.2,0.9,5,1.4,8.6,1.5
				l23.9,1.3c17.4,0.9,30.7,5.2,39.8,12.9c5.7,4.7,10,10.5,12.8,17.4C834.9,1017.3,836.7,1025.4,837.4,1034.5z"/>
			<path class="st22" d="M945.7,931.9l13,152.6l-48,4.1l-13-152.6l-48,4.1l-3.6-42.8L990.1,885l3.6,42.8L945.7,931.9z"/>
			<path class="st22" d="M1163.3,968.7c0.6,7.3,1.2,14.5,1.7,21.6c0.5,7.1,0.4,13.9-0.2,20.6c-0.6,6.7-2.1,13.1-4.3,19.3
				c-2.2,6.2-5.7,12.1-10.4,17.6c-6.5,7.7-13.9,13.9-22.2,18.3c-8.3,4.5-18.5,7.2-30.5,8.3c-12.1,1-22.6,0-31.5-3
				c-8.9-3-17.3-7.8-25-14.3c-5.6-4.7-10-9.9-13.2-15.6c-3.2-5.7-5.8-11.8-7.5-18.3c-1.8-6.5-3-13.2-3.7-20.3
				c-0.7-7-1.3-14.2-2-21.5c-0.6-7.3-1.2-14.5-1.7-21.6c-0.5-7-0.4-13.9,0.2-20.6c0.6-6.7,2.1-13.1,4.3-19.3
				c2.2-6.2,5.7-12,10.4-17.6c6.5-7.7,13.9-13.9,22.2-18.3c8.3-4.5,18.5-7.2,30.5-8.3c12.1-1,22.6,0,31.5,3c8.9,3,17.3,7.8,25,14.3
				c5.6,4.7,10,9.9,13.2,15.6c3.3,5.7,5.7,11.8,7.5,18.3c1.7,6.5,3,13.3,3.7,20.3C1162.1,954.2,1162.7,961.4,1163.3,968.7z
				 M1115.3,972.8c-0.8-9-1.6-16.2-2.4-21.8c-0.8-5.5-1.7-10-2.5-13.3c-0.8-3.3-1.8-5.9-2.9-7.6c-1.1-1.8-2.2-3.3-3.4-4.7
				c-2-2.2-4.8-4-8.2-5.4c-3.4-1.4-7.3-1.9-11.7-1.5c-4.4,0.4-8.2,1.5-11.3,3.5c-3.2,1.9-5.5,4.2-7.2,6.7c-1,1.6-1.8,3.3-2.6,5.2
				c-0.8,1.9-1.3,4.6-1.5,8c-0.3,3.4-0.3,8-0.2,13.6c0.1,5.6,0.5,12.9,1.3,21.9c0.8,9,1.6,16.2,2.4,21.6c0.8,5.5,1.7,9.9,2.5,13.2
				c0.8,3.3,1.8,5.9,2.9,7.6c1.1,1.8,2.2,3.3,3.4,4.7c2,2.2,4.8,4.1,8.2,5.5c3.4,1.5,7.4,2,11.8,1.6s8.2-1.6,11.3-3.6
				c3.1-2,5.5-4.3,7.2-6.8c1-1.6,1.8-3.3,2.6-5.2c0.8-1.9,1.3-4.6,1.5-8c0.3-3.4,0.3-7.9,0.2-13.4
				C1116.5,989,1116.1,981.7,1115.3,972.8z"/>
		</g>
	</g>
	<g>
		<path class="st19" d="M228,989.5l2.9,34.3l72.5-6.2l3.6,42.8l-72.5,6.2l6.4,75.5l-48,4.1l-16.6-195.4l132.9-11.3l3.6,42.8
			L228,989.5z"/>
		<path class="st19" d="M449.3,1124.4l-11.5-28.3l-60.1,5.1l-7.1,29.9l-50.2,4.3l54.5-201.5l37.1-3.1l87.7,189.4L449.3,1124.4z
			 M400.8,1006.4l-13.1,53.6l34-2.9L400.8,1006.4z"/>
		<path class="st19" d="M654.9,1067.2c-3.2,8.9-7.9,16.8-14.2,23.5c-6.3,6.7-13.8,12.1-22.5,16.2c-8.8,4.1-18.2,6.5-28.3,7.4
			c-10.2,0.9-20,0-29.1-2.5c-9.2-2.5-17.4-6.6-24.7-12.1c-7.3-5.6-13.2-12.5-17.8-20.7c-4.6-8.3-7.3-17.8-8.2-28.6l-10.8-126.8
			l48-4.1l10.7,125.7c0.8,9.2,3.7,16,8.7,20.6c5,4.6,11.5,6.5,19.6,5.8c8-0.7,14.2-3.7,18.6-9c4.3-5.3,6.1-12.6,5.3-21.7
			l-10.7-125.7l48-4.1l10.8,126.8C659.3,1048.4,658.1,1058.2,654.9,1067.2z"/>
		<path class="st19" d="M826.5,1032.1c0.8,9.9-0.4,18.8-3.8,26.9c-3.4,8-8.3,14.9-14.7,20.7c-6.4,5.8-14.1,10.4-23,13.8
			c-8.9,3.4-18.5,5.6-28.8,6.5c-7.5,0.6-14.7,0.8-21.5,0.6c-6.8-0.2-13.5-1.1-19.8-2.5c-6.4-1.4-12.5-3.5-18.2-6.3
			c-5.8-2.8-11.3-6.6-16.7-11.3l28.1-33.4c5.6,4.7,12.4,7.7,20.7,9c8.2,1.3,16.3,1.7,24.1,1c18.7-1.6,27.5-8.2,26.5-19.9
			c-0.4-4.9-2-8.7-4.8-11.2c-3-2.5-7.4-3.9-13.3-4.1l-23.9-1.3c-17.6-1.1-31.2-5.7-40.7-14c-9.7-8.4-15.3-21.1-16.8-38.1
			c-0.8-9,0.2-17.3,2.8-25.1c2.7-7.8,6.8-14.7,12.5-20.7c5.7-6,12.8-10.9,21.3-14.8c8.5-3.9,18.4-6.3,29.5-7.2
			c14.1-1.2,26.6-0.5,37.6,2.2c11,2.7,21.1,7.8,30.2,15.5l-27.6,32.8c-3.4-2.8-6.9-4.9-10.5-6.2c-3.6-1.3-7.1-2.1-10.4-2.6
			c-3.4-0.4-6.5-0.6-9.4-0.3c-2.9,0.2-5.5,0.5-7.7,0.7c-4.2,0.4-7.7,1.2-10.6,2.6c-2.8,1.3-5.1,3-6.9,4.9c-1.8,1.9-3,3.9-3.8,6.1
			c-0.7,2.2-1,4.4-0.8,6.6c0.1,1.3,0.5,2.7,1.2,4.3c0.7,1.6,1.8,3.1,3.4,4.4c1.4,1.2,3.2,2.2,5.4,3.1c2.2,0.9,5,1.4,8.6,1.5
			l23.9,1.3c17.4,0.9,30.7,5.2,39.8,12.9c5.7,4.7,10,10.5,12.8,17.4C824,1014.9,825.8,1023,826.5,1032.1z"/>
		<path class="st19" d="M934.8,929.5l13,152.6l-48,4.1l-13-152.6l-48,4.1l-3.6-42.8l144.1-12.2l3.6,42.8L934.8,929.5z"/>
		<path class="st19" d="M1152.4,966.3c0.6,7.3,1.2,14.5,1.7,21.6c0.5,7.1,0.4,13.9-0.2,20.6c-0.6,6.7-2.1,13.1-4.3,19.3
			c-2.2,6.2-5.7,12.1-10.4,17.6c-6.5,7.7-13.9,13.9-22.2,18.3c-8.3,4.5-18.5,7.2-30.5,8.3c-12.1,1-22.6,0-31.5-3
			c-8.9-3-17.3-7.8-25-14.3c-5.6-4.7-10-9.9-13.2-15.6c-3.2-5.7-5.8-11.8-7.5-18.3c-1.8-6.5-3-13.2-3.7-20.3c-0.7-7-1.3-14.2-2-21.5
			c-0.6-7.3-1.2-14.5-1.7-21.6c-0.5-7-0.4-13.9,0.2-20.6c0.6-6.7,2.1-13.1,4.3-19.3c2.2-6.2,5.7-12,10.4-17.6
			c6.5-7.7,13.9-13.9,22.2-18.3c8.3-4.5,18.5-7.2,30.5-8.3c12.1-1,22.6,0,31.5,3c8.9,3,17.3,7.8,25,14.3c5.6,4.7,10,9.9,13.2,15.6
			c3.3,5.7,5.7,11.8,7.5,18.3c1.7,6.5,3,13.3,3.7,20.3C1151.2,951.8,1151.8,959,1152.4,966.3z M1104.4,970.4
			c-0.8-9-1.6-16.2-2.4-21.8c-0.8-5.5-1.7-10-2.5-13.3c-0.8-3.3-1.8-5.9-2.9-7.6c-1.1-1.7-2.2-3.3-3.4-4.7c-2-2.2-4.8-4-8.2-5.4
			c-3.4-1.4-7.3-1.9-11.7-1.5c-4.4,0.4-8.2,1.5-11.3,3.5c-3.2,1.9-5.5,4.2-7.2,6.7c-1,1.6-1.8,3.3-2.6,5.2c-0.8,1.9-1.3,4.6-1.5,8
			c-0.3,3.4-0.3,8-0.2,13.6c0.1,5.6,0.5,12.9,1.3,21.9c0.8,9,1.6,16.2,2.4,21.6c0.8,5.5,1.7,9.9,2.5,13.2c0.8,3.3,1.8,5.9,2.9,7.6
			c1.1,1.8,2.2,3.3,3.4,4.7c2,2.2,4.8,4.1,8.2,5.5c3.4,1.5,7.4,2,11.8,1.6c4.4-0.4,8.2-1.6,11.3-3.6c3.1-2,5.5-4.3,7.2-6.8
			c1-1.6,1.8-3.3,2.6-5.2c0.8-1.9,1.3-4.6,1.5-8c0.3-3.4,0.3-7.9,0.2-13.4C1105.6,986.6,1105.2,979.3,1104.4,970.4z"/>
	</g>
	<g>
		<path class="st16" d="M648.7,1217.1c-0.8,3.9-2.5,7.4-5.2,10.4c-2.6,3-5.6,5.3-8.9,6.9c-3.3,1.6-7.2,2.5-11.6,2.8
			c-4.4,0.2-8.3-0.2-11.7-1.5c-3.4-1.2-6.5-3.1-9.4-5.7c-2.1-1.8-3.7-3.9-4.8-6c-1.2-2.2-2-4.5-2.6-7c-0.6-2.5-1-5-1.2-7.7
			c-0.2-2.7-0.4-5.4-0.5-8.2c-0.2-2.8-0.3-5.5-0.4-8.2c-0.1-2.7,0-5.3,0.3-7.8c0.3-2.5,0.9-4.9,1.8-7.3c0.9-2.3,2.3-4.5,4.1-6.6
			c2.6-2.9,5.4-5.1,8.6-6.7c3.2-1.6,7-2.5,11.5-2.8c2.6-0.1,5-0.1,7.2,0.1c2.1,0.2,4.1,0.7,5.9,1.3c1.8,0.6,3.5,1.5,5.2,2.5
			c1.7,1.1,3.4,2.4,5.1,3.9l-11.7,13.1c-1-0.9-1.8-1.6-2.6-2.2c-0.8-0.6-1.6-1.1-2.4-1.5c-0.8-0.4-1.7-0.7-2.6-0.8
			c-0.9-0.2-2-0.2-3.1-0.1c-1.7,0.1-3.1,0.5-4.3,1.2c-1.2,0.7-2.1,1.5-2.7,2.5c-0.4,0.6-0.7,1.2-1,1.9c-0.3,0.7-0.5,1.7-0.7,3
			c-0.1,1.3-0.2,3-0.2,5.1c0,2.1,0.1,4.9,0.3,8.3c0.2,3.4,0.4,6.2,0.7,8.3c0.3,2.1,0.5,3.8,0.8,5.1c0.3,1.3,0.6,2.3,1,3
			c0.4,0.7,0.8,1.3,1.3,1.8c0.7,0.9,1.7,1.6,3,2.1c1.2,0.5,2.7,0.7,4.4,0.6c1.9-0.1,3.5-0.5,4.5-1s2-1.3,2.8-2.3
			c0.9-1,1.5-2.3,1.9-4c0.3-1.6,0.5-3.1,0.4-4.3l0-0.8l-10.2,0.6l-0.9-15.2l28.3-1.6l0.6,10C649.8,1208.2,649.5,1213.2,648.7,1217.1
			z"/>
		<path class="st16" d="M703.5,1232l-4.1-10.8l-22.8,1.3l-3,11.2l-19.1,1.1l22.8-75.7l14.1-0.8l31.1,72.6L703.5,1232z M686.5,1186.8
			l-5.5,20.2l12.9-0.7L686.5,1186.8z"/>
		<path class="st16" d="M781,1227.6l-2-35.5l-9.5,18.9l-11.7,0.7l-11.5-17.7l2,35.5l-18.2,1l-4.2-74.1l17.9-1l18.5,31.8l14.8-33.6
			l17.9-1l4.2,74.1L781,1227.6z"/>
		<path class="st16" d="M814.2,1225.8l-4.2-74.1l50.4-2.8l0.9,16.2l-32.2,1.8l0.7,12.4l27.5-1.5l0.9,16.2l-27.5,1.5l0.7,13l32.2-1.8
			l0.9,16.2L814.2,1225.8z"/>
		<path class="st16" d="M949.1,1195.4c0.2,3.7-0.4,7.1-1.7,10.1c-1.4,3-3.3,5.6-5.8,7.7c-2.5,2.1-5.4,3.8-8.9,5
			c-3.4,1.2-7.1,1.9-11,2.1c-2.8,0.2-5.6,0.2-8.1,0c-2.6-0.2-5.1-0.5-7.5-1.1c-2.4-0.6-4.7-1.5-6.8-2.6c-2.2-1.1-4.2-2.6-6.2-4.5
			l11-12.3c2.1,1.8,4.6,3,7.7,3.6c3.1,0.6,6.1,0.8,9.1,0.6c7.1-0.4,10.5-2.8,10.2-7.3c-0.1-1.9-0.7-3.3-1.7-4.3
			c-1.1-1-2.8-1.5-5-1.7l-9-0.7c-6.7-0.6-11.7-2.5-15.3-5.7c-3.6-3.3-5.6-8.1-5.9-14.6c-0.2-3.4,0.3-6.6,1.3-9.5
			c1.1-2.9,2.7-5.5,4.9-7.7c2.2-2.2,4.9-4,8.2-5.4c3.3-1.4,7-2.2,11.2-2.4c5.3-0.3,10.1,0.1,14.2,1.2c4.1,1.1,7.9,3.2,11.3,6.2
			l-10.8,12.1c-1.2-1.1-2.5-1.9-3.9-2.4c-1.4-0.5-2.7-0.9-3.9-1.1c-1.3-0.2-2.5-0.3-3.6-0.2c-1.1,0.1-2.1,0.1-2.9,0.2
			c-1.6,0.1-2.9,0.4-4,0.9c-1.1,0.5-2,1.1-2.7,1.8c-0.7,0.7-1.2,1.5-1.5,2.3c-0.3,0.8-0.4,1.6-0.4,2.5c0,0.5,0.2,1,0.4,1.6
			c0.2,0.6,0.7,1.2,1.2,1.7c0.5,0.5,1.2,0.9,2,1.2c0.8,0.4,1.9,0.6,3.2,0.7l9,0.7c6.6,0.5,11.5,2.3,14.9,5.3
			c2.1,1.8,3.7,4.1,4.7,6.7C948.3,1188.9,948.9,1191.9,949.1,1195.4z"/>
		<path class="st16" d="M1000,1215.3l-1.7-29.4l-19.4,1.1l1.7,29.4l-18.2,1l-4.2-74.1l18.2-1l1.6,28.5l19.4-1.1l-1.6-28.5l18.2-1
			l4.2,74.1L1000,1215.3z"/>
		<path class="st16" d="M1085.1,1173.3c0.2,2.8,0.3,5.5,0.4,8.2c0.1,2.7,0,5.3-0.3,7.8c-0.3,2.5-0.9,4.9-1.8,7.3
			c-0.9,2.3-2.3,4.5-4.1,6.6c-2.6,2.9-5.4,5.1-8.6,6.7c-3.2,1.6-7.1,2.5-11.6,2.8c-4.6,0.3-8.5-0.2-11.9-1.5
			c-3.3-1.2-6.4-3.1-9.3-5.7c-2.1-1.8-3.7-3.9-4.8-6c-1.2-2.2-2-4.5-2.6-7s-1-5-1.2-7.7c-0.2-2.7-0.4-5.4-0.5-8.2
			c-0.2-2.8-0.3-5.5-0.4-8.2c-0.1-2.7,0-5.3,0.3-7.8c0.3-2.5,0.9-4.9,1.8-7.3c0.9-2.3,2.3-4.5,4.1-6.6c2.6-2.9,5.4-5.1,8.6-6.7
			c3.2-1.6,7.1-2.5,11.6-2.8c4.6-0.3,8.5,0.2,11.9,1.5c3.3,1.2,6.4,3.1,9.3,5.7c2.1,1.8,3.7,3.9,4.8,6c1.2,2.2,2,4.5,2.6,7
			c0.6,2.5,1,5,1.2,7.7C1084.8,1167.8,1085,1170.5,1085.1,1173.3z M1066.9,1174.3c-0.2-3.4-0.4-6.2-0.7-8.3
			c-0.3-2.1-0.5-3.8-0.8-5.1c-0.3-1.3-0.6-2.2-1-2.9c-0.4-0.7-0.8-1.3-1.3-1.8c-0.7-0.9-1.8-1.6-3-2.1c-1.3-0.6-2.8-0.8-4.4-0.7
			c-1.7,0.1-3.1,0.5-4.3,1.2c-1.2,0.7-2.1,1.5-2.8,2.5c-0.4,0.6-0.7,1.2-1,1.9c-0.3,0.7-0.5,1.7-0.7,3c-0.1,1.3-0.2,3-0.2,5.1
			c0,2.1,0.1,4.9,0.3,8.3c0.2,3.4,0.4,6.1,0.7,8.2c0.3,2.1,0.5,3.7,0.8,5c0.3,1.3,0.6,2.2,1,2.9c0.4,0.7,0.8,1.3,1.3,1.8
			c0.7,0.9,1.8,1.6,3,2.2c1.3,0.6,2.8,0.8,4.4,0.7c1.7-0.1,3.1-0.5,4.3-1.2c1.2-0.7,2.1-1.6,2.8-2.5c0.4-0.6,0.7-1.2,1-1.9
			c0.3-0.7,0.5-1.7,0.7-3c0.1-1.3,0.2-3,0.2-5.1C1067.2,1180.5,1067.1,1177.7,1066.9,1174.3z"/>
		<path class="st16" d="M1165.3,1206l-14.9,0.8l-14-35.9l-9.9,37.2l-14.8,0.8l-24.6-73l19.1-1.1l11.9,38.6l9.8-39.8l12.9-0.7
			l14.2,38.5l7.5-39.7l19.1-1.1L1165.3,1206z"/>
	</g>
	<path id="braco_2_" class="st4" d="M580.7,453.4l27-41.6l26.6-17.8l26.5,24.1l-8.3,5.6l1.3,10l1,9.8l0,0l-0.2,14.2l-15.1,5.5
		l-13.7-5l-36.5,38.9c-24.1,41-58,54.5-74.5,58.8c-10.5,2.7-21.6-1.8-26.7-11.4c-9.1-17-9.2-44.2-9.2-44.2
		c0.3-9.5,0.9-14.7,3.6-20.7l78.5-13.3L580.7,453.4"/>
	<ellipse transform="matrix(0.9919 -0.1267 0.1267 0.9919 -54.0389 76.665)" cx="575.9" cy="463.3" rx="18.7" ry="18.7"/>
	<polygon points="604.2,481.3 595.7,473.1 592.1,470.4 579.1,481.4 592.4,493.5 	"/>
	
		<ellipse transform="matrix(0.6119 -0.791 0.791 0.6119 -142.3674 631.7422)" class="st6" cx="572.5" cy="460.9" rx="13.4" ry="10"/>
</g>
</svg>
