<?xml version="1.0" encoding="utf-8"?>
<!-- Generator: Adobe Illustrator 19.2.1, SVG Export Plug-In . SVG Version: 6.00 Build 0)  -->
<svg version="1.1" id="Layer_1" xmlns="http://www.w3.org/2000/svg" xmlns:xlink="http://www.w3.org/1999/xlink" x="0px" y="0px"
	 viewBox="0 0 1082 1077.2" style="enable-background:new 0 0 1082 1077.2;" xml:space="preserve">
<style type="text/css">
	.st0{display:none;}
	.st1{display:inline;fill:#D9AC95;}
	.st2{fill:#2E1800;}
	.st3{fill:#253C69;}
	.st4{fill:#EBCABC;}
	.st5{fill:#7A716E;}
	.st6{fill:#F78819;}
	.st7{fill:#F8B018;}
	.st8{fill:none;stroke:#000000;stroke-width:3;stroke-miterlimit:10;}
	.st9{fill:none;stroke:#D9AC95;stroke-width:3;stroke-miterlimit:10;}
	.st10{fill:#012952;}
	.st11{fill:#D9AC95;}
	.st12{fill:#695F60;}
	.st13{fill:#DB712A;}
	.st14{fill:#DC9527;}
	.st15{fill:#C69985;}
	.st16{fill:none;stroke:#C69985;stroke-width:3;stroke-miterlimit:10;}
	.st17{fill:#FFFFFF;}
	.st18{fill:#642420;}
	.st19{fill:#231F20;}
	.st20{fill:#E4AC3E;}
	.st21{fill:#D69F30;}
	.st22{fill:#323442;}
	.st23{fill:#EBEBC4;}
	.st24{opacity:0.5;fill:#FFFFFF;enable-background:new    ;}
	.st25{fill:#F0A72C;}
	.st26{fill:#F5B745;}
	.st27{fill:none;}
	.st28{enable-background:new    ;}
	.st29{fill:#D59E30;}
	.st30{fill:#C08C31;}
	.st31{fill:#E2634E;}
	.st32{fill:#C0412E;}
	.st33{opacity:0.7;fill:#8C6E35;enable-background:new    ;}
</style>
<g id="Layer_1_1_" class="st0">
	<path class="st1" d="M860,389.2"/>
</g>
<g id="cabelo">
</g>
<g id="esq">
</g>
<g id="dir">
</g>
<g id="comum">
	<g>
		<path class="st2" d="M451.6,196.9l0.3-19.8c0,0-15.1-35.3-11.6-72.1S467,35.2,486,31.8s33.3,10,33.3,10h8.6c0,0,15.5-12,44.8-10.6
			S627.3,59,636.4,82s-3.7,96.2-3.7,96.2v23.5H451.8L451.6,196.9z"/>
		<path id="blusa" class="st3" d="M316.8,484.8c7.7-11.7,20.1-20.3,25.7-23.2c2-1.1,3.5-3,4-5.2c18.4-82.7,107-109.3,107-109.3
			l87.2,60.8L540,526.6H421L316.8,484.8z"/>
		<path id="pele" class="st4" d="M540.8,96.4c0,0-44.5-3.8-56.1,0c0,0-24,4.8-25.9,34.5L452.1,317c0,0-4.6,55.4,23.8,71.1
			c0.8,0.5,1.7,0.9,2.5,1.4c3.4,2.1,18.2,9.1,62.5,6.6L540.8,96.4L540.8,96.4z"/>
		<path id="pescoco" class="st4" d="M501,395.4c0,0,13.5,30.8,39.8,27.5V396L501,395.4z"/>
		<polygon id="mic_1_" points="513.9,383.8 529.1,391.1 481,492.4 465.4,487.6 		"/>
		<path id="calca" class="st5" d="M420.9,526.6h120l-0.2,104.3c-10.3-0.7-17.6,20.5-17.6,20.5c-7.9,20.5-11.1,101.8-11.1,101.8
			l-7.4-7.7c-1.8-1.8-3.2-4-4.2-6.3L413,535.6"/>
		<polygon id="cinto1_2_" class="st6" points="420.8,553.8 496.7,553.8 496.7,526.6 420.1,526.6 412.1,535.6 		"/>
		<polygon id="sapato" class="st6" points="506.9,748.1 491.9,758.8 512.1,758.8 511.8,753.2 		"/>
		<path id="braco_3_" class="st4" d="M425,470.2l34.3-40.6l30.7-15.3l24.9,29.3l-9.6,4.8v10.8l-0.2,10.6l0,0l-2.2,15.1l-16.8,3.8
			l-13.9-7.2l-44.1,36.4c-31.2,40.4-69.2,50.2-87.2,52.5c-11.5,1.5-22.7-4.9-26.9-15.8c-7.4-19.3-3.8-48.3-3.8-48.3
			c1.6-10,3-15.5,6.6-21.6l85.3-3.5L425,470.2"/>
		<rect id="cinto2" x="508.4" y="526.6" class="st7" width="32.4" height="27.2"/>
		<circle cx="418.1" cy="483.3" r="20"/>
		<polygon points="442.2,506.3 434.1,496.5 430.5,493.2 415.4,503.3 428.1,517.9 		"/>
		
			<ellipse transform="matrix(0.7071 -0.7071 0.7071 0.7071 -218.1642 433.9767)" class="st7" cx="414.8" cy="480.3" rx="14.3" ry="10.7"/>
		<path id="sobrancelha" class="st2" d="M529.1,236.4l-5.2-36.1c0,0-1.8-12.4-18.7-14.9c0,0-26.4-2-27.5-1.6c0,0-13.5-0.2-10.8,15.8
			l3.6,30.6c0,0,4.5-21,17.3-24.8c0,0,15.1-4,26.4,10.3C514.2,215.5,528.4,232.2,529.1,236.4z"/>
		<path id="orelha" class="st4" d="M456.4,198.3c0,0-15.1-8.7-16.5,17.6c0,0,0.4,18,2.9,24.1c0,0-11.5,14.7-10.8,31.6
			c0,0,2.1,21.6,21.9-3.9"/>
		<path class="st8" d="M425,470.2"/>
		<path class="st9" d="M539.9,361.5c-12.8-0.8-22.9-18-22.9-39.1c0-21.6,10.7-39.1,23.9-39.1"/>
		<path class="st9" d="M540.9,361.5c-0.3,0-0.6,0-1,0"/>
		<path id="blusa_1_" class="st10" d="M627,347.1c0,0,92.2,18.3,101.3,110.8c0,0,48,9.1,51.8,34.5H678.5l-9.1,43.1H539.9V386
			L627,347.1z"/>
		<path id="pele_1_" class="st11" d="M539.9,96.4c0,0,44.5-3.8,56.1,0c0,0,24,4.8,25.9,34.5l6.7,186.1c0,0,4.6,55.4-23.8,71.1
			c-0.8,0.5-1.7,0.9-2.5,1.4c-3.4,2.1-18.2,9.1-62.5,6.6L539.9,96.4L539.9,96.4z"/>
		<path id="pescoco_1_" class="st11" d="M579.7,395.4c0,0-13.5,30.8-39.8,27.5V396L579.7,395.4z"/>
		<path id="calca_1_" class="st12" d="M660.6,526.6h-120v104.3c9.2-1.3,17.9,20.5,17.9,20.5c7.9,20.5,11.1,101.8,11.1,101.8l7.4-7.7
			c1.8-1.8,3.2-4,4.2-6.3l87.2-203.6"/>
		<polygon id="cinto1_1_" class="st13" points="660.6,553.8 584.7,553.8 584.7,526.6 661.3,526.6 669.3,535.6 		"/>
		<polygon id="sapato_1_" class="st6" points="574.5,748.2 589.5,758.8 569.4,758.8 569.6,753.2 		"/>
		<rect id="cinto2_1_" x="539.9" y="526.6" class="st14" width="32.4" height="27.2"/>
		<path id="sobrancelha_1_" class="st2" d="M552.4,236.4l5.2-36.1c0,0,1.8-12.4,18.7-14.9c0,0,26.4-2,27.5-1.6
			c0,0,13.5-0.2,10.8,15.8l-3.6,30.6c0,0-4.5-21-17.3-24.8c0,0-15.1-4-26.4,10.3C567.3,215.5,553.1,232.3,552.4,236.4z"/>
		<path id="orelha_1_" class="st11" d="M624.3,198.3c0,0,15.1-8.7,16.5,17.6c0,0-0.4,18-2.9,24.1c0,0,11.5,14.7,10.8,31.6
			c0,0-2.1,21.6-21.9-3.9"/>
		<path class="st15" d="M780.1,492.4c0,0,8.2,63.3-17.7,69.5c0,0-32.6,13.4-70,2.4c0,0-24.5-2.4-36-21.6l22.5-50.4L780.1,492.4
			L780.1,492.4z"/>
		<path class="st16" d="M540.9,283.3c13.2,0,23.9,17.5,23.9,39.1s-11,39.5-24.9,39.1"/>
		<g>
			<path class="st17" d="M559.4,262.6c0.5-0.7,10.9-21,30.1-20.7c14.9,0,18.1,16.1,18.1,16.1s2.3,6-12.1,6.9
				C581.2,265.8,557.1,265.6,559.4,262.6z"/>
			<circle class="st18" cx="586.2" cy="253.9" r="9.9"/>
			<circle class="st19" cx="586.2" cy="253.9" r="4.8"/>
			<ellipse class="st17" cx="579.2" cy="253.9" rx="7" ry="3.4"/>
		</g>
		<path class="st15" d="M559.2,261.2c0,0,4.2-25.6,29.7-28.7c25.6-3.2,21.5,24.7,21.5,24.7s-2.7-20.8-19.4-20.1
			C574.3,237.7,559.2,261.2,559.2,261.2z"/>
		<g>
			<path class="st17" d="M527.7,258.5c-0.5-0.7-10.9-21-30.1-20.7c-14.9,0-18.1,16.1-18.1,16.1s-2.3,6,12.1,6.9
				C505.8,261.6,529.9,261.4,527.7,258.5z"/>
			<circle class="st18" cx="500.8" cy="249.7" r="9.9"/>
			<circle class="st19" cx="500.8" cy="249.7" r="4.8"/>
			<ellipse class="st17" cx="507.9" cy="249.7" rx="7" ry="3.4"/>
		</g>
		<path class="st11" d="M527.8,257c0,0-4.2-25.6-29.7-28.7c-25.6-3.2-21.5,24.7-21.5,24.7s2.7-20.8,19.4-20.1
			C512.7,233.6,527.8,257,527.8,257z"/>
		<path class="st11" d="M539.8,298.7c-7.1,0-12.8-6.1-12.8-13.7c0-7.5,5.7-13.7,12.8-13.7"/>
		<path class="st15" d="M539.8,298.7c7.1,0,12.8-6.1,12.8-13.7c0-7.5-5.7-13.7-12.8-13.7V298.7z"/>
		<path class="st11" d="M539.8,364.8c-7.1,0-12.8-4-12.8-8.8c0-4.9,5.7-8.8,12.8-8.8"/>
		<path class="st15" d="M539.8,364.8c7.1,0,12.8-4,12.8-8.8c0-4.9-5.7-8.8-12.8-8.8V364.8z"/>
		<ellipse id="boca" cx="540.8" cy="331.3" rx="10.2" ry="15.8"/>
		<circle id="mic" cx="525.9" cy="375.3" r="15.9"/>
		<g>
			<path class="st20" d="M605.4,479.5l-7.1,1.7l-4.3-18l-110.2,26.6l4.3,18l-7.1,1.7c-11.4,2.7-18.4,14.3-15.7,25.6
				c2.7,11.4,14.3,18.4,25.6,15.7l7.6-1.8c8.8,22.7,31.3,37.2,55.3,36.2l5,20.6l21.1-5.1l-5-20.6c21.9-10,35.3-33.3,32.8-57.4
				l7.6-1.8c11.4-2.7,18.4-14.3,15.7-25.6C628.4,483.8,616.8,476.8,605.4,479.5z M495.5,538.5l-7.1,1.7c-5.5,1.3-11.2-2.1-12.5-7.7
				c-1.3-5.5,2.1-11.2,7.7-12.5l7.1-1.7L495.5,538.5z M612.9,510.3l-7.1,1.7l-4.9-20.2l7.1-1.7c5.5-1.3,11.2,2.1,12.5,7.7
				C621.9,503.3,618.4,508.9,612.9,510.3z"/>
			<path class="st21" d="M605.4,479.5l-7.1,1.7l-4.3-18l-55.1,13.3l30.5,126.7l10.6-2.5l-5-20.6c21.9-10,35.3-33.3,32.8-57.4
				l7.6-1.8c11.4-2.7,18.4-14.3,15.7-25.6C628.4,483.8,616.8,476.8,605.4,479.5z M612.9,510.3l-7.1,1.7l-4.9-20.2l7.1-1.7
				c5.5-1.3,11.2,2.1,12.5,7.7C621.9,503.3,618.4,508.9,612.9,510.3z"/>
			<polygon class="st22" points="604.9,594.7 533.8,611.8 535.3,618 525.3,620.4 535,660.9 626.2,638.9 616.5,598.4 606.4,600.9 			
				"/>
			
				<rect x="548.7" y="617.6" transform="matrix(0.9722 -0.2342 0.2342 0.9722 -131.4409 152.3474)" class="st23" width="54.1" height="24"/>
		</g>
		<polygon class="st11" points="682.8,484.3 658.3,543.8 611.8,522.2 605.1,504.4 607.5,484.3 623.8,477.1 647.8,477.1 		"/>
	</g>
	<g id="Layer_5">
	</g>
	<rect x="50.2" y="1037.4" class="st24" width="982.5" height="20.9"/>
	<rect x="61.4" y="1020.5" class="st24" width="966.4" height="16.9"/>
	<g>
		<rect x="71.1" y="832" class="st25" width="258.5" height="188.4"/>
		<rect x="329.7" y="759.6" class="st26" width="424.4" height="260.9"/>
		<rect x="754.1" y="898.1" class="st25" width="260.1" height="122.4"/>
		<rect x="486.7" y="824" class="st27" width="95" height="126.4"/>
		<g class="st28">
			<path class="st17" d="M547.5,941.8h-25.4v-84.3h-24.5v-18l50-7.7V941.8z"/>
		</g>
		<rect x="169" y="887.4" class="st27" width="62.8" height="77.7"/>
		<g class="st28">
			<path class="st17" d="M221.3,961h-48.1v-10.4l22.1-23.2c2.8-3.2,4.9-6.1,6.2-8.6c1.3-2.5,2-4.7,2-6.6c0-2.6-0.7-4.8-2-6.3
				c-1.3-1.6-3.3-2.4-6-2.4c-2.4,0-4.3,1-5.6,3c-1.4,2-2.1,4.6-2.1,7.8h-15.6l-0.1-0.3c-0.2-6.4,1.9-11.7,6.2-16.2
				c4.3-4.4,10-6.6,17.1-6.6c7.5,0,13.4,1.9,17.7,5.6c4.2,3.7,6.3,8.8,6.3,15.2c0,4.3-1.1,8.2-3.4,11.5c-2.2,3.3-6.4,8.3-12.4,14.9
				l-9.3,10l0.1,0.3h26.8V961z"/>
		</g>
		<rect x="866.9" y="926.3" class="st27" width="62.8" height="77.7"/>
		<g class="st28">
			<path class="st17" d="M881.9,952.4h6c2.3,0,4.1-0.6,5.3-1.8c1.2-1.2,1.9-2.9,1.9-5.1c0-1.7-0.6-3.2-1.7-4.4
				c-1.1-1.2-2.7-1.8-4.8-1.8c-1.7,0-3.1,0.5-4.4,1.4c-1.3,1-1.9,2.2-1.9,3.7h-12.4l-0.1-0.2c-0.2-4.4,1.6-7.9,5.2-10.6
				c3.6-2.7,8-4.1,13.1-4.1c6,0,10.7,1.4,14.3,4.1s5.4,6.6,5.4,11.6c0,2.5-0.8,4.8-2.3,6.9c-1.5,2.1-3.6,3.7-6.2,4.9
				c2.9,1.1,5.2,2.7,6.9,4.9c1.7,2.2,2.5,4.8,2.5,7.9c0,5-1.9,9-5.8,11.9s-8.8,4.3-14.8,4.3c-5.2,0-9.7-1.4-13.5-4.1
				c-3.9-2.7-5.7-6.6-5.6-11.8l0.1-0.2h12.5c0,1.8,0.7,3.2,2.1,4.4c1.4,1.2,3,1.8,5,1.8c2.2,0,4-0.6,5.4-1.9c1.3-1.3,2-2.8,2-4.8
				c0-2.7-0.7-4.6-2.1-5.8c-1.4-1.2-3.4-1.8-5.9-1.8h-6V952.4z"/>
		</g>
	</g>
	<path class="st29" d="M632.5,437.5c-2.8,0-5.5-0.6-8-1.7l17.4,30.1l4.5-15.2l15.4,3.7l-14-24.3
		C644.2,434.6,638.7,437.5,632.5,437.5z"/>
	<path class="st30" d="M629.8,444.9l4,6.9l9.5-16.5c-2.8,1.7-6,2.6-9.5,2.7L629.8,444.9z"/>
	<path class="st31" d="M642.5,435.5l9.6,16.6l9.7,2.3L648.3,431C646.7,432.9,644.7,434.4,642.5,435.5z"/>
	<path class="st31" d="M623.9,434.8l18,31.1l2.7-9.1l-11.2-19.3C630,437.4,626.7,436.5,623.9,434.8z"/>
	<polygon class="st32" points="633.8,438 629.8,444.9 633.8,451.8 637.7,444.9 	"/>
	<path class="st20" d="M618,431l-13.5,23.4l15.4-3.7l4.5,15.2l18-31.1c-2.9,1.7-6.3,2.7-9.9,2.7C626.7,437.5,621.6,435,618,431z"/>
	<path class="st31" d="M618,431l-13.5,23.4l9.7-2.3l9.6-16.6C621.6,434.4,619.7,432.9,618,431z"/>
	<path class="st31" d="M621.7,456.8l2.7,9.1l18-31.1c-2.8,1.7-6,2.6-9.5,2.7L621.7,456.8z"/>
	<path class="st33" d="M622.8,422.8l-7.2,12.5c9.8,9.6,25.5,9.1,34.7-0.9l-6.7-11.6H622.8z"/>
	<circle class="st20" cx="632.5" cy="418.1" r="21.5"/>
	<path class="st21" d="M632.5,396.6v43c11.9,0,21.5-9.6,21.5-21.5S644.4,396.6,632.5,396.6z"/>
	<polygon class="st17" points="627.5,412.2 631.3,412.2 631.3,429.4 635.3,429.4 635.3,408.1 627.5,408.1 	"/>
</g>
</svg>
